<svg xmlns="http://www.w3.org/2000/svg" id="a" viewBox="0 0 1000 350"><g id="b"><g id="c"><g id="d"><path id="e" d="m874.98,231.19c0-12.28,9.97-22.23,22.23-22.23s22.23,9.96,22.23,22.23-9.95,22.23-22.23,22.23-22.23-9.95-22.23-22.23" style="fill:#85bb24;"></path><path id="f" d="m165.89,172.31c0-14.08-2.72-24.53-8.16-31.34-5.45-6.8-13.7-10.2-24.8-10.2h-11.81v86.12h9.03c12.33,0,21.36-3.65,27.11-10.99,5.74-7.32,8.63-18.52,8.63-33.6m42.1-1.47c0,25.66-6.9,45.43-20.69,59.3-13.79,13.88-33.18,20.83-58.18,20.83h-48.57V97.23h51.96c24.1,0,42.71,6.31,55.82,18.93,13.11,12.62,19.66,30.84,19.66,54.68" style="fill:#0f0b0b;"></path><path id="g" d="m342.52,250.97h38.65V96.59h-38.65v154.38Z" style="fill:#0f0b0b;"></path><path id="h" d="m435.46,193.38c0,9.84,1.29,17.35,3.85,22.51,2.57,5.17,6.88,7.75,12.94,7.75s10.24-2.58,12.71-7.75c2.47-5.16,3.7-12.67,3.7-22.51s-1.25-17.18-3.75-22.16c-2.51-5-6.79-7.5-12.85-7.5s-10.17,2.49-12.74,7.44c-2.57,4.96-3.85,12.37-3.85,22.22m72.54,0c0,18.75-4.92,33.38-14.77,43.87-9.85,10.49-23.64,15.74-41.36,15.74s-30.53-5.37-40.57-16.1c-10.05-10.73-15.08-25.23-15.08-43.52s4.92-33.22,14.78-43.58c9.85-10.36,23.67-15.54,41.47-15.54,10.99,0,20.72,2.4,29.15,7.19,8.43,4.79,14.95,11.66,19.52,20.6,4.58,8.93,6.86,19.38,6.86,31.32" style="fill:#0f0b0b;"></path><path id="i" d="m523.34,250.97h38.65v-114.68h-38.65v114.68Z" style="fill:#0f0b0b;"></path><path id="j" d="m523.34,122.42h38.65v-25.84h-38.65v25.84Z" style="fill:#0f0b0b;"></path><path id="k" d="m640.3,221.72c5.22,0,11.43-1.33,18.68-3.96v28.85c-5.21,2.29-10.17,3.93-14.87,4.9-4.71.98-10.24,1.47-16.56,1.47-12.98,0-22.33-3.26-28.08-9.77-5.72-6.51-8.59-16.51-8.59-30v-47.27h-13.54v-29.65h13.54v-29.29l38.95-6.77v36.06h24.66v29.65h-24.66v44.64c0,7.42,3.49,11.14,10.47,11.14" style="fill:#0f0b0b;"></path><path id="l" d="m729.76,221.72c5.22,0,11.43-1.33,18.68-3.96v28.85c-5.2,2.29-10.17,3.93-14.87,4.9-4.72.98-10.22,1.47-16.56,1.47-12.98,0-22.33-3.26-28.06-9.77-5.73-6.51-8.6-16.51-8.6-30v-47.27h-13.54v-29.65h13.54v-29.73l38.94-6.33v36.06h24.67v29.65h-24.67v44.64c0,7.42,3.49,11.14,10.47,11.14" style="fill:#0f0b0b;"></path><path id="m" d="m797.21,179.41c.53-6.28,2.32-10.88,5.38-13.82,3.08-2.93,6.87-4.4,11.41-4.4,4.95,0,8.89,1.65,11.81,4.97,2.94,3.3,4.47,7.72,4.59,13.25h-33.2,0Zm54.5-31.63c-9.19-9.01-22.22-13.52-39.08-13.52-17.72,0-31.36,5.18-40.92,15.54-9.55,10.36-14.33,25.22-14.33,44.58s5.17,33.22,15.47,43.37c10.31,10.15,24.79,15.23,43.44,15.23,8.96,0,16.66-.61,23.12-1.83,6.42-1.2,12.64-3.38,18.66-6.52l-5.94-25.84c-4.38,1.79-8.55,3.17-12.49,4.07-5.69,1.32-11.93,1.98-18.72,1.98-7.45,0-13.33-1.82-17.64-5.46-4.31-3.65-6.61-8.68-6.87-15.09h69.08v-17.61c0-16.94-4.59-29.92-13.79-38.92" style="fill:#0f0b0b;"></path><path id="n" d="m259.29,179.41c.53-6.28,2.32-10.88,5.38-13.82,3.07-2.93,6.87-4.4,11.42-4.4,4.94,0,8.88,1.65,11.81,4.97,2.94,3.3,4.46,7.72,4.6,13.25h-33.21Zm54.51-31.63c-9.19-9.01-22.22-13.52-39.09-13.52-17.73,0-31.36,5.18-40.92,15.54-9.55,10.36-14.34,25.22-14.34,44.58s5.16,33.22,15.48,43.37c10.31,10.15,24.79,15.23,43.44,15.23,8.96,0,16.66-.61,23.12-1.83,6.42-1.2,12.64-3.38,18.67-6.52l-5.94-25.84c-4.38,1.79-8.55,3.17-12.48,4.07-5.7,1.32-11.93,1.98-18.73,1.98-7.44,0-13.33-1.82-17.64-5.46-4.32-3.65-6.61-8.68-6.87-15.09h69.08v-17.61c0-16.94-4.59-29.92-13.78-38.92" style="fill:#0f0b0b;"></path></g></g></g></svg>