<svg xmlns="http://www.w3.org/2000/svg" id="a" viewBox="0 0 1000 350"><path d="m923.08,166.4v-14.88h-18.48v-23.13l-.62.19-17.36,5.31-.34.1v17.53h-27.4v-9.77c0-4.55,1.02-8.03,3.02-10.35,1.99-2.29,4.84-3.46,8.47-3.46,2.61,0,5.31.61,8.03,1.83l.68.3v-15.67l-.32-.12c-2.54-.91-5.99-1.37-10.26-1.37-5.39,0-10.29,1.17-14.56,3.5-4.27,2.33-7.64,5.65-9.99,9.88-2.35,4.22-3.54,9.09-3.54,14.49v10.74h-12.87v14.88h12.87v62.69h18.47v-62.69h27.4v39.84c0,16.41,7.74,24.72,23,24.72,2.51,0,5.15-.29,7.84-.87,2.74-.59,4.61-1.18,5.71-1.81l.24-.14v-15.02l-.75.5c-1,.67-2.25,1.21-3.71,1.62-1.47.41-2.7.62-3.65.62-3.58,0-6.22-.96-7.86-2.86-1.66-1.92-2.5-5.27-2.5-9.97v-36.62h18.48Zm-136.79,49.46c-6.7,0-11.99-2.22-15.72-6.6-3.75-4.4-5.65-10.68-5.65-18.65s1.9-14.66,5.65-19.14c3.73-4.45,8.96-6.71,15.56-6.71s11.5,2.16,15.16,6.41c3.67,4.28,5.53,10.67,5.53,18.99s-1.75,14.89-5.21,19.22c-3.43,4.3-8.59,6.48-15.33,6.48m.82-66.21c-12.79,0-22.95,3.75-30.2,11.14-7.24,7.39-10.91,17.62-10.91,30.41s3.58,21.91,10.65,29.03c7.07,7.12,16.69,10.73,28.58,10.73s22.36-3.8,29.6-11.3c7.24-7.49,10.91-17.62,10.91-30.11s-3.44-22.18-10.23-29.25c-6.79-7.07-16.35-10.66-28.4-10.66m-70.89,0c-8.7,0-15.9,2.23-21.4,6.61-5.53,4.41-8.34,10.2-8.34,17.21,0,3.64.61,6.88,1.8,9.62,1.2,2.75,3.05,5.18,5.52,7.21,2.45,2.02,6.22,4.13,11.23,6.28,4.21,1.73,7.34,3.2,9.34,4.35,1.95,1.13,3.33,2.27,4.11,3.38.76,1.08,1.14,2.57,1.14,4.4,0,5.21-3.9,7.75-11.93,7.75-2.98,0-6.38-.62-10.1-1.85-3.7-1.21-7.18-2.98-10.34-5.24l-.77-.55v17.78l.28.13c2.61,1.21,5.91,2.22,9.79,3.02,3.88.8,7.4,1.21,10.46,1.21,9.44,0,17.05-2.24,22.59-6.65,5.58-4.44,8.41-10.37,8.41-17.62,0-5.23-1.52-9.71-4.53-13.33-2.98-3.59-8.16-6.88-15.38-9.79-5.75-2.31-9.44-4.22-10.96-5.7-1.47-1.42-2.21-3.43-2.21-5.98,0-2.26.92-4.06,2.8-5.53,1.9-1.47,4.54-2.22,7.86-2.22,3.08,0,6.23.49,9.36,1.44,3.13.95,5.88,2.23,8.17,3.79l.75.52v-16.87l-.29-.12c-2.12-.91-4.91-1.68-8.3-2.31-3.37-.63-6.44-.94-9.1-.94m-77.89,66.21c-6.7,0-11.99-2.22-15.72-6.6-3.75-4.4-5.64-10.67-5.64-18.65s1.9-14.66,5.65-19.14c3.72-4.45,8.96-6.71,15.56-6.71s11.5,2.16,15.15,6.41c3.67,4.28,5.53,10.67,5.53,18.99s-1.75,14.89-5.21,19.22c-3.43,4.3-8.59,6.48-15.33,6.48m.82-66.21c-12.79,0-22.96,3.75-30.2,11.14-7.24,7.39-10.91,17.62-10.91,30.41s3.59,21.91,10.65,29.03c7.07,7.12,16.68,10.73,28.58,10.73s22.36-3.8,29.6-11.3c7.24-7.49,10.91-17.62,10.91-30.11s-3.44-22.18-10.24-29.25c-6.8-7.07-16.35-10.66-28.4-10.66m-69.15,15.3v-13.43h-18.25v77.57h18.25v-39.68c0-6.75,1.53-12.29,4.55-16.48,2.98-4.14,6.95-6.23,11.8-6.23,1.64,0,3.49.27,5.49.81,1.98.53,3.41,1.11,4.25,1.72l.77.56v-18.4l-.3-.13c-1.7-.72-4.1-1.09-7.15-1.09-4.59,0-8.69,1.47-12.2,4.37-3.09,2.55-5.31,6.05-7.02,10.41h-.19Zm-50.92-15.3c-8.37,0-15.84,1.8-22.19,5.33-6.36,3.55-11.29,8.61-14.63,15.05-3.33,6.42-5.03,13.93-5.03,22.29,0,7.33,1.64,14.06,4.89,19.98,3.25,5.94,7.84,10.58,13.65,13.8,5.81,3.22,12.52,4.85,19.95,4.85,8.67,0,16.08-1.73,22.01-5.15l.24-.14v-16.72l-.77.56c-2.69,1.96-5.69,3.52-8.93,4.65-3.23,1.13-6.17,1.69-8.74,1.69-7.16,0-12.91-2.24-17.08-6.66-4.18-4.42-6.3-10.63-6.3-18.45s2.21-14.23,6.57-18.93c4.34-4.69,10.1-7.06,17.11-7.06,6,0,11.84,2.03,17.37,6.04l.77.56v-17.61l-.25-.14c-2.08-1.16-4.92-2.13-8.44-2.86-3.51-.73-6.94-1.09-10.2-1.09m-54.42,1.87h-18.25v77.57h18.25s0-77.57,0-77.57Zm-8.94-33.05c-3,0-5.62,1.02-7.77,3.05-2.16,2.03-3.26,4.59-3.26,7.61s1.08,5.48,3.22,7.46c2.13,1.97,4.75,2.97,7.81,2.97s5.69-1,7.84-2.97c2.17-1.98,3.26-4.49,3.26-7.46s-1.07-5.44-3.18-7.53c-2.1-2.08-4.77-3.13-7.93-3.13m-45.53,27.32v83.29h18.62v-108.24h-25.77l-32.76,80.4-31.79-80.4h-26.82v108.24h17.5v-83.3h.6l33.57,83.3h13.21l33.05-83.29h.6Z" style="fill:#706d6e;"></path><path d="m162.75,170.51h-85.84v-85.84h85.84v85.84Z" style="fill:#f0511b;"></path><path d="m257.53,170.51h-85.84v-85.84h85.84v85.84h0Z" style="fill:#80cb28;"></path><path d="m162.75,265.32h-85.84v-85.84h85.84v85.84Z" style="fill:#00acee;"></path><path d="m257.53,265.32h-85.84v-85.84h85.84v85.84h0Z" style="fill:#fabb09;"></path></svg>