<svg xmlns="http://www.w3.org/2000/svg" id="a" viewBox="0 0 1000 350"><g id="b"><path id="c" d="m93.9,91.32v40.25h85.01c-35.22,34.69-98.51,97.19-98.51,97.19l28.34,28.87s74.15-74.68,114.14-114.4v113.61h39.19V91.32H93.9Z" style="fill:#f03;"></path><path id="d" d="m210.69,230.61c0-14.56-11.92-26.48-26.48-26.48s-26.48,11.92-26.48,26.48,11.92,26.48,26.48,26.48,26.48-11.92,26.48-26.48Z" style="fill:#f03;"></path></g><g id="e"><path id="f" d="m824.8,160.7c-1.32,2.12-4.5,4.24-8.47,4.24-5.3,0-7.15-2.91-7.15-6.09,0-3.71,2.38-5.83,7.15-5.83,4.24,0,6.36.53,8.47,1.85v5.83Zm12.18,13.51v-31.25c0-10.33-7.68-16.42-18.8-16.42-7.41,0-11.92,1.59-17.48,4.77l4.77,8.47c4.24-2.38,7.15-3.18,12.71-3.18,4.5,0,6.62,2.65,6.62,5.83v2.38c-1.85-1.06-4.77-1.85-9-1.85-10.59,0-18.8,5.03-18.8,15.36,0,11.12,8.74,16.68,17.48,16.68,4.24,0,8.21-1.85,10.33-3.97v3.18h12.18Z"></path><path id="g" d="m907.16,174.21v-48.73l-12.98,6.89v-11.92l15.09-7.94h10.33v61.97h-12.45v-.26Z"></path><path id="h" d="m378.58,132.1c0,5.3-3.18,7.94-8.74,7.94h-12.98v-15.89h12.98c5.3,0,8.74,2.65,8.74,7.94Zm12.98-.26c0-13.24-9.53-19.6-21.45-19.6h-25.69v61.97h12.45v-21.98h12.18c12.98,0,22.51-6.09,22.51-20.39Z"></path><path id="i" d="m422.81,141.9c-1.85-1.85-4.24-2.91-7.15-2.91-4.77,0-7.94,2.12-7.94,10.06v25.16h-12.18v-46.34h12.18v3.18c2.12-2.12,5.3-3.97,9.53-3.97,3.97,0,6.89,1.59,8.47,3.18l-2.91,11.65Z"></path><path id="j" d="m457.23,150.9c0,6.36-2.91,12.45-8.74,12.45s-8.47-5.3-8.47-12.45,2.65-12.45,8.47-12.45,8.74,5.56,8.74,12.45Zm12.45,0c0-14.3-9-24.36-21.19-24.36s-20.92,10.06-20.92,24.36,8.74,24.1,20.92,24.1c12.18.26,21.19-9.8,21.19-24.1Z"></path><path id="k" d="m497.75,175.26c-10.33,0-19.33-4.24-24.1-11.12l9-7.94c4.24,5.03,9.8,7.15,15.89,7.15,7.41,0,10.86-2.12,10.86-6.62,0-3.97-2.12-5.83-13.77-8.47-11.39-2.65-19.33-6.36-19.33-18.54,0-11.12,9.8-18.27,22.24-18.27,9.53,0,16.68,3.71,22.51,9.8l-9,8.74c-3.97-3.97-8.47-6.36-14.04-6.36-6.62,0-8.74,2.91-8.74,5.56,0,3.97,2.65,5.03,12.45,7.41s20.66,5.56,20.66,19.07c-.26,11.65-7.68,19.6-24.63,19.6h0Z"></path><path id="l" d="m537.21,123.89c-3.71,0-6.89-3.18-6.89-6.89s3.18-6.89,6.89-6.89,6.89,3.18,6.89,6.89-3.18,6.89-6.89,6.89Zm-6.09,50.32v-46.34h12.18v46.61h-12.18v-.26Z"></path><path id="m" d="m581.17,145.61h-15.89c.53-4.77,3.18-8.21,7.68-8.21,5.56,0,7.94,4.24,8.21,8.21Zm11.92,5.3c0-13.24-7.15-24.36-19.6-24.36-11.65,0-20.66,10.06-20.66,24.36s8.47,24.1,21.98,24.1c6.09,0,12.98-2.65,16.68-7.41l-8.74-7.15c-1.85,2.12-4.5,3.18-7.94,3.18-4.5,0-9-2.38-9.53-8.74h27.81v-3.97Z"></path><path id="n" d="m630.16,151.7c0,7.68-2.65,11.92-7.15,11.92-3.44,0-6.36-1.32-8.21-3.97v-17.48c1.85-2.38,3.71-3.97,7.41-3.97,4.77,0,7.94,3.97,7.94,13.51Zm12.45-.26c0-17.48-8.21-24.89-18.01-24.89-4.5,0-7.41,1.85-9.8,3.97v-20.13h-12.18v63.82h12.18v-2.65c2.12,2.12,5.83,3.71,9.8,3.71,11.39,0,18.01-9.8,18.01-23.83Z"></path><path id="o" d="m677.03,145.61h-15.89c.53-4.77,3.18-8.21,7.68-8.21,5.3,0,7.94,4.24,8.21,8.21Zm11.92,5.3c0-13.24-7.15-24.36-19.6-24.36-11.65,0-20.66,10.06-20.66,24.36s8.47,24.1,21.98,24.1c6.09,0,12.98-2.65,16.68-7.41l-8.74-7.15c-1.85,2.12-4.5,3.18-7.94,3.18-4.5,0-9-2.38-9.53-8.74h27.81v-3.97Z"></path><path id="p" d="m725.49,174.21v-25.16c0-8.21-2.91-10.86-7.94-10.86s-7.94,2.38-7.94,10.59v25.42h-12.18v-46.34h12.18v3.18c2.12-2.12,6.09-3.97,10.86-3.97,11.92,0,17.21,8.21,17.21,21.19v26.22h-12.18v-.26Z"></path><path id="q" d="m767.33,175.26c-10.33,0-19.33-4.24-24.1-11.12l9-7.94c4.24,5.03,9.8,7.15,15.89,7.15,7.41,0,10.86-2.12,10.86-6.62,0-3.97-2.12-5.83-13.77-8.47-11.39-2.65-19.33-6.36-19.33-18.54,0-11.12,9.8-18.27,22.24-18.27,9.53,0,16.68,3.71,22.51,9.8l-9,8.74c-3.97-3.97-8.47-6.36-14.04-6.36-6.62,0-8.74,2.91-8.74,5.56,0,3.97,2.65,5.03,12.45,7.41,9.8,2.38,20.66,5.56,20.66,19.07-.26,11.65-7.68,19.6-24.63,19.6h0Z"></path><path id="r" d="m391.29,256.83v-48.46c-.53,2.38-2.38,6.89-3.71,10.33l-16.68,39.99-16.42-39.99c-1.32-3.18-2.91-7.94-3.71-10.33v48.46h-6.62v-61.97h7.68l14.56,37.07c1.59,3.71,3.71,9.53,4.5,11.92.79-2.65,2.91-8.47,4.5-11.92l14.83-37.07h7.41v61.97h-6.36Z"></path><path id="s" d="m440.55,230.61h-25.16c.79-10.33,5.56-15.36,12.45-15.36,8.21,0,12.18,6.36,12.71,15.36Zm6.09,1.59c0-13.24-6.62-22.77-18.8-22.77-11.12,0-19.33,9.27-19.33,24.1,0,18.27,10.33,24.36,18.8,24.36,6.89,0,11.12-1.85,16.68-5.3l-3.18-4.77c-4.24,2.91-7.41,4.5-12.71,4.5-7.68,0-12.18-6.36-12.98-16.15h30.98c.53-1.32.53-2.38.53-3.97Z"></path><path id="t" d="m485.57,245.44c-3.18,3.97-7.41,6.62-12.18,6.62-7.41,0-11.65-6.09-11.65-17.74,0-12.45,3.71-19.07,11.39-19.07,5.56,0,10.06,3.18,12.45,6.89v23.3Zm6.62,11.39v-61.97h-6.62v20.92c-3.18-3.71-7.15-6.09-12.98-6.09-9.8,0-17.48,8.47-17.48,24.89s7.41,23.57,16.68,23.57c6.36,0,10.59-3.18,14.04-6.62v5.56h6.36v-.26Z"></path><path id="u" d="m510.46,202.01c-2.65,0-4.77-2.12-4.77-4.77s2.12-4.77,4.77-4.77c2.38,0,4.5,2.12,4.5,4.77s-2.12,4.77-4.5,4.77Zm-3.71,54.82v-46.34h6.62v46.34h-6.62Z"></path><path id="v" d="m554.95,245.44c-2.91,3.97-7.41,6.89-13.24,6.89s-9.53-2.91-9.53-9.8c0-5.83,3.97-9,10.86-9,5.56,0,9,1.06,11.92,2.65v9.27Zm6.62,11.39v-32.31c0-10.86-6.36-15.09-16.42-15.09-6.09,0-11.39,1.59-15.62,3.71l2.38,5.3c3.71-2.12,7.68-3.44,12.71-3.44,6.89,0,10.06,3.44,10.06,10.33v5.56c-2.65-1.59-6.89-2.65-11.65-2.65-9.27,0-17.74,4.5-17.74,14.83,0,11.12,7.68,14.83,14.83,14.83,6.62,0,11.12-3.18,14.56-6.62v5.56h6.89Z"></path><path id="w" d="m876.44,173.68s-7.15,1.59-11.92,1.59c-7.41,0-12.45-5.83-12.45-14.04v-21.98h-7.68v-11.39h7.68v-15.62h12.18v15.62h11.12v11.39h-11.12v18.8c0,5.56,1.59,5.83,4.5,5.83,2.12,0,5.83-.53,7.41-.79v10.59h.26Z"></path><path id="x" d="m891.8,175.26c-4.24,0-7.94-3.71-7.94-7.94s3.71-7.94,7.94-7.94,7.94,3.71,7.94,7.94c-.26,4.24-3.71,7.94-7.94,7.94Z"></path></g><g id="y"><g id="z"><path id="aa" d="m604.21,257.89c-8.47,0-16.15-3.71-21.19-8.74l4.77-5.3c4.77,4.5,10.33,7.68,16.68,7.68,8.47,0,13.51-4.24,13.51-10.86,0-5.83-3.44-9.27-15.09-13.24-13.51-4.77-18.27-9.27-18.27-18.27,0-10.06,7.94-16.15,19.6-16.15,8.47,0,13.77,2.65,19.07,6.62l-4.5,5.56c-4.5-3.71-8.74-5.83-15.09-5.83-8.74,0-12.18,4.24-12.18,9.27,0,5.3,2.38,8.21,14.83,12.71,14.04,5.03,18.27,9.8,18.27,19.07.53,9.8-7.15,17.48-20.39,17.48h0Z"></path><path id="ab" d="m637.04,256.83v-63.03h38.13v6.36h-30.98v19.86h18.01v6.36h-18.01v24.1h32.31v6.36h-39.46Z"></path></g></g></svg>