<svg xmlns="http://www.w3.org/2000/svg" id="a" viewBox="0 0 1000 350"><path d="m255.71,246.19c-12.13,0-20.47-3.27-23.32-4.64l2.95-8.55c1.9.95,10.34,4.22,19.1,4.22,12.45,0,16.14-5.28,16.14-12.13,0-8.34-8.12-10.76-16.88-14.03-7.91-2.95-19.31-6.75-19.31-20.47,0-12.45,9.6-20.26,25.11-20.26,9.39,0,15.19,1.9,18.15,2.74v9.28c-2.85-1.05-10.02-3.27-18.25-3.27-9.18,0-14.56,3.9-14.56,10.97s6.86,9.39,16.56,12.87c10.76,3.9,20.47,8.02,20.47,22.05s-9.71,21.21-26.17,21.21Z" style="fill:#e20713;"></path><path d="m292.53,220.24v-10.23h26.06v10.23h-26.06Z" style="fill:#e20713;"></path><path d="m375.88,244.93c-7.81-11.29-18.89-24.58-31.02-34.82v34.82h-10.55v-73.33h10.55v30.49l28.07-30.49h12.98l-31.33,33.76c13.08,10.34,26.06,26.48,34.4,39.57h-13.08Z" style="fill:#e20713;"></path><path d="m422.62,200.93c-10.23,0-15.19,8.44-15.19,15.09v28.91h-10.23v-53.39h9.81l.21,10.13c2.95-6.12,8.23-10.45,15.09-10.45,2.01,0,3.38.21,4.01.32v9.71c-.53-.11-2.11-.32-3.69-.32Z" style="fill:#e20713;"></path><path d="m477.8,221.4h-34.08c.84,10.76,5.91,16.67,16.14,16.67,4.64,0,9.71-.84,12.77-1.69l2,7.81c-4.43,1.37-9.5,2.01-16.25,2.01-16.25,0-25.53-10.87-25.53-27.85s8.34-28.07,23.63-28.07c14.24,0,21.52,8.86,21.52,24.9,0,2.21-.11,4.43-.21,6.22Zm-10.55-9.81c0-8.76-3.48-13.82-10.97-13.82-8.02,0-12.13,6.01-12.77,16.25h23.74v-2.43Z" style="fill:#e20713;"></path><path d="m523.9,244.93l-.21-6.86c-3.59,5.49-8.33,7.91-15.4,7.91-12.24,0-21.1-8.23-21.1-27.32,0-18.04,9.81-28.17,22.37-28.17,7.07,0,11.71,2.64,13.93,5.06v-28.17h10.23v77.55h-9.81Zm-.42-40.73c-2.43-2.43-5.7-5.06-11.61-5.06-8.02,0-13.61,7.07-13.61,19.52,0,10.34,2.64,18.88,12.35,18.88,8.12,0,12.87-6.44,12.87-16.88v-16.46Z" style="fill:#e20713;"></path><path d="m552.17,244.93v-45.79c-1.9-.32-4.96-.74-6.96-.84v-6.75h17.2v53.39h-10.23Zm3.9-63.94c-3.69,0-6.75-2.85-6.75-6.33s3.06-6.44,6.75-6.44,6.65,2.85,6.65,6.44-3.06,6.33-6.65,6.33Z" style="fill:#e20713;"></path><path d="m597.22,245.98c-10.66,0-14.98-5.91-14.98-15.82v-30.6h-8.34v-8.02h8.34v-11.92c2.85-1.06,6.65-2.75,10.23-4.54v16.46h13.82v8.02h-13.82v29.44c0,6.12,2.11,8.76,7.6,8.76,2.64,0,5.7-.53,6.96-.95l1.79,7.6c-3.27.95-7.39,1.58-11.61,1.58Z" style="fill:#e20713;"></path><path d="m642.06,245.98c-6.01,0-10.34-1.69-13.51-4.32v24.58h-10.23v-74.7h9.81l.21,7.81c2.22-4.32,7.17-8.86,15.93-8.86,13.19,0,20.78,9.5,20.78,27.01s-8.12,28.49-23,28.49Zm-.53-46.84c-8.34,0-12.98,8.23-12.98,19.84v13.72c3.06,3.06,6.75,4.96,11.39,4.96,7.07,0,10.87-3.69,12.66-9.28.95-3.06,1.48-6.75,1.48-10.66,0-10.76-3.27-18.57-12.56-18.57Z" style="fill:#e20713;"></path><path d="m705.68,244.93l-.21-4.54c-2.43,2.43-8.12,5.59-15.4,5.59-8.97,0-16.46-4.43-16.46-16.14,0-8.02,3.8-13.29,10.97-16.14,4.01-1.58,9.07-2.32,15.3-2.43.63,0,4.75-.11,5.38-.11v-2.85c0-6.86-3.06-10.02-12.45-10.02-5.7,0-10.55,1.37-14.98,2.95v-8.34c5.17-1.48,10.02-2.43,16.99-2.43,14.24,0,20.57,5.28,20.57,17.73v36.72h-9.71Zm-.42-26.27h-3.8c-11.92,0-17.62,2.74-17.62,10.76,0,4.43,2.22,8.65,9.07,8.65,5.28,0,9.81-2.32,12.35-4.96v-14.45Z" style="fill:#e20713;"></path><path d="m754.63,200.93c-10.23,0-15.19,8.44-15.19,15.09v28.91h-10.23v-53.39h9.81l.21,10.13c2.95-6.12,8.23-10.45,15.09-10.45,2.01,0,3.38.21,4.01.32v9.71c-.53-.11-2.11-.32-3.69-.32Z" style="fill:#e20713;"></path><path d="m786.18,245.98c-10.66,0-14.98-5.91-14.98-15.82v-30.6h-8.34v-8.02h8.34v-11.92c2.85-1.06,6.65-2.75,10.23-4.54v16.46h13.82v8.02h-13.82v29.44c0,6.12,2.11,8.76,7.6,8.76,2.64,0,5.7-.53,6.96-.95l1.79,7.6c-3.27.95-7.39,1.58-11.61,1.58Z" style="fill:#e20713;"></path><path d="m841.15,244.93v-34.08c0-8.02-3.38-11.61-10.23-11.61-7.49,0-13.4,6.54-13.4,14.66v31.02h-10.23v-53.39h9.81l.21,7.49c3.16-5.06,8.97-8.55,16.78-8.55,11.08,0,17.3,6.54,17.3,17.41v37.03h-10.23Z" style="fill:#e20713;"></path><path d="m907.72,221.4h-34.08c.85,10.76,5.91,16.67,16.14,16.67,4.64,0,9.71-.84,12.77-1.69l2.01,7.81c-4.43,1.37-9.5,2.01-16.25,2.01-16.25,0-25.53-10.87-25.53-27.85s8.34-28.07,23.63-28.07c14.24,0,21.53,8.86,21.53,24.9,0,2.21-.11,4.43-.21,6.22Zm-10.55-9.81c0-8.76-3.48-13.82-10.97-13.82-8.02,0-12.13,6.01-12.77,16.25h23.74v-2.43Z" style="fill:#e20713;"></path><path d="m946.01,200.93c-10.23,0-15.19,8.44-15.19,15.09v28.91h-10.23v-53.39h9.81l.21,10.13c2.95-6.12,8.23-10.45,15.09-10.45,2.01,0,3.38.21,4.01.32v9.71c-.53-.11-2.11-.32-3.69-.32Z" style="fill:#e20713;"></path><path d="m79.73,166.88v12.4h94.53v46.51c0,10.57-8.57,19.14-19.14,19.14h-85.67c-10.58,0-19.15-8.57-19.15-19.14v-9.15h95.27v-12.4H50.29v-47.16c0-10.58,8.57-19.15,19.15-19.15h85.67c10.58,0,19.14,8.57,19.14,19.15v9.81h-94.53Z" style="fill:#e20713; fill-rule:evenodd;"></path><circle cx="112.28" cy="104.36" r="20.6" style="fill:#e20713;"></circle></svg>