<svg xmlns="http://www.w3.org/2000/svg" xmlns:xlink="http://www.w3.org/1999/xlink" id="a" viewBox="0 0 1000 350"><defs><clipPath id="b"><rect x="151.05" y="128.06" width="113.9" height="111.57" style="fill:none;"></rect></clipPath></defs><path d="m398.94,146.16h-25.63v-15.34h67.16v15.26h-25.65v70.34h-15.88v-70.26Z" style="fill:#06f;"></path><path d="m494.1,198.1c-1.34,4.89-9.05,19.53-28.71,19.53-18.32,0-31.72-13.43-31.72-32.37s13.45-32.37,31.72-32.37c16.77-.1,30.45,13.42,30.55,30.19,0,.32,0,.64,0,.96-.02,1.47-.15,2.93-.37,4.38l-.24,1.72h-46.42c.91,8.44,8.1,14.8,16.59,14.66,5.18.26,10.09-2.31,12.84-6.72h15.78Zm-13.43-18.32c-1.34-7.91-6.6-14.07-15.19-14.07-9.33,0-14.66,6.12-16.49,14.07h31.68Z" style="fill:#06f;"></path><path d="m505.09,130.82h15.28v85.6h-15.28v-85.6Z" style="fill:#06f;"></path><path d="m590,198.1c-1.34,4.89-9.03,19.53-28.71,19.53-18.32,0-31.72-13.43-31.72-32.37s13.43-32.37,31.72-32.37c16.77-.1,30.45,13.42,30.55,30.19,0,.32,0,.64,0,.96-.03,1.47-.14,2.93-.35,4.38l-.24,1.72h-46.44c.9,8.4,8.04,14.75,16.49,14.66,5.18.26,10.09-2.31,12.84-6.72h15.88Zm-13.43-18.32c-1.34-7.95-6.6-14.07-15.28-14.07-9.33,0-14.66,6.12-16.49,14.07h31.77Z" style="fill:#06f;"></path><path d="m605.88,168.77h-10.39v-14.66h10.39v-9.18c0-9.33,5.99-15.26,15.28-15.26h13.43v13.43h-9.16c-2.3-.05-4.22,1.76-4.29,4.07v6.94h13.45v14.66h-13.45v47.65h-15.26v-47.65Z" style="fill:#06f;"></path><path d="m700.41,185.3c0,18.94-13.45,32.37-31.72,32.37s-31.72-13.47-31.72-32.37,13.45-32.37,31.72-32.37,31.72,13.34,31.72,32.37Zm-15.28,0c0-10.99-7.33-18.32-16.49-18.32s-16.49,7.33-16.49,18.32,7.37,18.28,16.49,18.28,16.49-7.31,16.49-18.28Z" style="fill:#06f;"></path><path d="m709.57,154.1h14.05l1.21,6.14h.62c1.21-1.43,2.61-2.68,4.16-3.73,3.86-2.49,8.36-3.79,12.95-3.73,14.05,0,24.44,10.39,24.44,26.27v37.31h-15.28v-35.99c-.28-7.42-6.52-13.22-13.94-12.94-7.04.26-12.68,5.91-12.94,12.94v36.04h-15.26v-62.31Z" style="fill:#06f;"></path><path d="m864.2,193.19c-1.87,9.79-9.65,24.44-29.33,24.44-18.32,0-31.72-13.43-31.72-32.37s13.43-32.37,31.72-32.37c19.68,0,27.37,14.65,29.33,23.82h-15.26c-1.98-6.02-7.71-10.01-14.05-9.78-9.16,0-16.51,7.31-16.51,18.36s7.31,18.28,16.51,18.28c6.55.3,12.42-4.04,14.05-10.39h15.26Z" style="fill:#06f;"></path><path d="m910.39,210.32h-.62c-1.23,1.45-2.67,2.71-4.27,3.73-4.03,2.53-8.7,3.82-13.45,3.73-14.16,0-22.59-8.66-22.59-18.92,0-12.24,8.54-20.76,25.65-20.76h14.05v-1.21c0-6.85-4.14-11.62-11.01-11.62s-10.37,4.42-10.99,7.95h-15.26c1.34-10.26,9.65-20.15,26.25-20.15s26.29,10.5,26.29,23.82v39.55h-12.84l-1.21-6.12Zm-1.23-20.76h-12.84c-7.93,0-11.6,3.08-11.6,7.95s3.54,7.95,9.87,7.95c9.33,0,14.66-5.39,14.66-14.05l-.09-1.85Z" style="fill:#06f;"></path><path d="m778.67,154.1h15.28v62.31h-15.28v-62.31Z" style="fill:#06f;"></path><circle cx="786.32" cy="136.12" r="9.05" style="fill:#06f;"></circle><polygon points="674.16 127.84 689.98 127.84 675.39 145.54 662.55 145.54 674.16 127.84" style="fill:#06f;"></polygon><circle cx="198.1" cy="175" r="122.54" style="fill:#06f;"></circle><g style="clip-path:url(#b); fill:none;"><path d="m170.45,173.73c0-16.4,9.98-32.29,27.05-32.29s26.88,15.91,26.88,32.29c0,15.39-8.28,32.29-26.88,32.29s-27.05-16.88-27.05-32.29m-16.9,0c0,24.68,17.91,45.15,43.95,45.15s43.79-20.52,43.79-45.15c0-26.21-17.57-45.15-43.79-45.15s-43.95,19.03-43.95,45.15m111.4,64.48v-6.01h-15.6c6.25-6.12,14.4-13.56,14.4-21.66,0-7.46-4.7-11.19-12-11.19-3.93.02-7.8.96-11.31,2.74l.6,6.34c2.59-1.82,5.65-2.85,8.81-2.99,3.12,0,6.23,1.64,6.23,5.13,0,7.01-13.06,17.84-16.51,21.29v6.4h25.37" style="fill:#fff;"></path></g></svg>